<mxfile host="app.diagrams.net" agent="Mozilla/5.0 (Windows NT 10.0; Win64; x64) AppleWebKit/537.36 (KHTML, like Gecko) Chrome/138.0.0.0 Safari/537.36" version="28.0.6">
  <diagram name="PÃ¡gina-1" id="XauOBqtBN6OgPEeOW-rA">
    <mxGraphModel grid="1" page="1" gridSize="10" guides="1" tooltips="1" connect="1" arrows="1" fold="1" pageScale="1" pageWidth="827" pageHeight="1169" math="0" shadow="0">
      <root>
        <mxCell id="0" />
        <mxCell id="1" parent="0" />
        <mxCell id="CY3JnBOswIFoGItXy_wy-1" value="" style="html=1;verticalAlign=bottom;startArrow=oval;startFill=1;endArrow=block;startSize=8;curved=0;rounded=0;" edge="1" parent="1">
          <mxGeometry width="60" relative="1" as="geometry">
            <mxPoint x="510" y="50" as="sourcePoint" />
            <mxPoint x="510" y="130" as="targetPoint" />
          </mxGeometry>
        </mxCell>
        <mxCell id="CY3JnBOswIFoGItXy_wy-2" style="edgeStyle=orthogonalEdgeStyle;rounded=0;orthogonalLoop=1;jettySize=auto;html=1;" edge="1" parent="1" source="CY3JnBOswIFoGItXy_wy-3" target="CY3JnBOswIFoGItXy_wy-6">
          <mxGeometry relative="1" as="geometry" />
        </mxCell>
        <mxCell id="CY3JnBOswIFoGItXy_wy-3" value="Ref" style="shape=umlFrame;whiteSpace=wrap;html=1;pointerEvents=0;" vertex="1" parent="1">
          <mxGeometry x="400" y="130" width="250" height="90" as="geometry" />
        </mxCell>
        <mxCell id="CY3JnBOswIFoGItXy_wy-4" value="Buacar contrato" style="text;html=1;align=center;verticalAlign=middle;resizable=0;points=[];autosize=1;strokeColor=none;fillColor=none;" vertex="1" parent="1">
          <mxGeometry x="455" y="168" width="110" height="30" as="geometry" />
        </mxCell>
        <mxCell id="CY3JnBOswIFoGItXy_wy-5" style="edgeStyle=orthogonalEdgeStyle;rounded=0;orthogonalLoop=1;jettySize=auto;html=1;" edge="1" parent="1" source="CY3JnBOswIFoGItXy_wy-6" target="CY3JnBOswIFoGItXy_wy-9">
          <mxGeometry relative="1" as="geometry" />
        </mxCell>
        <mxCell id="CY3JnBOswIFoGItXy_wy-6" value="Ref" style="shape=umlFrame;whiteSpace=wrap;html=1;pointerEvents=0;" vertex="1" parent="1">
          <mxGeometry x="400" y="310" width="250" height="90" as="geometry" />
        </mxCell>
        <mxCell id="CY3JnBOswIFoGItXy_wy-7" value="Ver listado de contrato" style="text;html=1;align=center;verticalAlign=middle;resizable=0;points=[];autosize=1;strokeColor=none;fillColor=none;" vertex="1" parent="1">
          <mxGeometry x="440" y="348" width="140" height="30" as="geometry" />
        </mxCell>
        <mxCell id="CY3JnBOswIFoGItXy_wy-8" style="edgeStyle=orthogonalEdgeStyle;rounded=0;orthogonalLoop=1;jettySize=auto;html=1;" edge="1" parent="1" source="CY3JnBOswIFoGItXy_wy-9">
          <mxGeometry relative="1" as="geometry">
            <mxPoint x="725" y="570" as="targetPoint" />
          </mxGeometry>
        </mxCell>
        <mxCell id="CY3JnBOswIFoGItXy_wy-9" value="" style="rhombus;whiteSpace=wrap;html=1;" vertex="1" parent="1">
          <mxGeometry x="493.5" y="480" width="63" height="50" as="geometry" />
        </mxCell>
        <mxCell id="CY3JnBOswIFoGItXy_wy-10" style="edgeStyle=orthogonalEdgeStyle;rounded=0;orthogonalLoop=1;jettySize=auto;html=1;exitX=0.442;exitY=1.029;exitDx=0;exitDy=0;exitPerimeter=0;" edge="1" parent="1" source="CY3JnBOswIFoGItXy_wy-11" target="CY3JnBOswIFoGItXy_wy-18">
          <mxGeometry relative="1" as="geometry">
            <mxPoint x="460" y="960" as="sourcePoint" />
            <Array as="points">
              <mxPoint x="205" y="910" />
              <mxPoint x="530" y="910" />
            </Array>
          </mxGeometry>
        </mxCell>
        <mxCell id="CY3JnBOswIFoGItXy_wy-11" value="Sd Envios&amp;nbsp;" style="shape=umlFrame;whiteSpace=wrap;html=1;pointerEvents=0;" vertex="1" parent="1">
          <mxGeometry x="10" y="570" width="440" height="230" as="geometry" />
        </mxCell>
        <mxCell id="CY3JnBOswIFoGItXy_wy-12" value="enviar contrato&amp;nbsp;" style="text;html=1;align=center;verticalAlign=middle;resizable=0;points=[];autosize=1;strokeColor=none;fillColor=none;" vertex="1" parent="1">
          <mxGeometry x="200" y="630" width="110" height="30" as="geometry" />
        </mxCell>
        <mxCell id="CY3JnBOswIFoGItXy_wy-13" style="edgeStyle=orthogonalEdgeStyle;rounded=0;orthogonalLoop=1;jettySize=auto;html=1;entryX=0.5;entryY=0;entryDx=0;entryDy=0;exitX=0.643;exitY=1.059;exitDx=0;exitDy=0;exitPerimeter=0;" edge="1" parent="1" source="CY3JnBOswIFoGItXy_wy-25" target="CY3JnBOswIFoGItXy_wy-18">
          <mxGeometry relative="1" as="geometry">
            <mxPoint x="600" y="615" as="sourcePoint" />
            <Array as="points">
              <mxPoint x="761" y="910" />
              <mxPoint x="530" y="910" />
            </Array>
          </mxGeometry>
        </mxCell>
        <mxCell id="CY3JnBOswIFoGItXy_wy-14" value="validar pdf" style="text;html=1;align=center;verticalAlign=middle;resizable=0;points=[];autosize=1;strokeColor=none;fillColor=none;" vertex="1" parent="1">
          <mxGeometry x="795" y="670" width="80" height="30" as="geometry" />
        </mxCell>
        <mxCell id="CY3JnBOswIFoGItXy_wy-15" value="Ref" style="shape=umlFrame;whiteSpace=wrap;html=1;pointerEvents=0;" vertex="1" parent="1">
          <mxGeometry x="410" y="1105" width="250" height="90" as="geometry" />
        </mxCell>
        <mxCell id="CY3JnBOswIFoGItXy_wy-16" value="Descargar contro" style="text;html=1;align=center;verticalAlign=middle;resizable=0;points=[];autosize=1;strokeColor=none;fillColor=none;" vertex="1" parent="1">
          <mxGeometry x="473" y="1135" width="120" height="30" as="geometry" />
        </mxCell>
        <mxCell id="CY3JnBOswIFoGItXy_wy-17" style="edgeStyle=orthogonalEdgeStyle;rounded=0;orthogonalLoop=1;jettySize=auto;html=1;entryX=0.447;entryY=0.013;entryDx=0;entryDy=0;entryPerimeter=0;" edge="1" parent="1" source="CY3JnBOswIFoGItXy_wy-9" target="CY3JnBOswIFoGItXy_wy-11">
          <mxGeometry relative="1" as="geometry" />
        </mxCell>
        <mxCell id="CY3JnBOswIFoGItXy_wy-18" value="" style="rounded=0;whiteSpace=wrap;html=1;" vertex="1" parent="1">
          <mxGeometry x="470" y="985" width="120" height="20" as="geometry" />
        </mxCell>
        <mxCell id="CY3JnBOswIFoGItXy_wy-19" style="edgeStyle=orthogonalEdgeStyle;rounded=0;orthogonalLoop=1;jettySize=auto;html=1;entryX=0.479;entryY=0.042;entryDx=0;entryDy=0;entryPerimeter=0;" edge="1" parent="1" source="CY3JnBOswIFoGItXy_wy-18" target="CY3JnBOswIFoGItXy_wy-15">
          <mxGeometry relative="1" as="geometry" />
        </mxCell>
        <mxCell id="CY3JnBOswIFoGItXy_wy-23" style="edgeStyle=orthogonalEdgeStyle;rounded=0;orthogonalLoop=1;jettySize=auto;html=1;entryX=0.51;entryY=0.007;entryDx=0;entryDy=0;entryPerimeter=0;" edge="1" parent="1" source="CY3JnBOswIFoGItXy_wy-15">
          <mxGeometry relative="1" as="geometry">
            <mxPoint x="535.5" y="1325.63" as="targetPoint" />
          </mxGeometry>
        </mxCell>
        <mxCell id="CY3JnBOswIFoGItXy_wy-24" value="" style="ellipse;html=1;shape=endState;fillColor=#000000;strokeColor=#ff0000;" vertex="1" parent="1">
          <mxGeometry x="518" y="1325" width="30" height="30" as="geometry" />
        </mxCell>
        <mxCell id="CY3JnBOswIFoGItXy_wy-25" value="Sd Documento pdf" style="shape=umlFrame;whiteSpace=wrap;html=1;pointerEvents=0;" vertex="1" parent="1">
          <mxGeometry x="600" y="570" width="470" height="260" as="geometry" />
        </mxCell>
        <mxCell id="CY3JnBOswIFoGItXy_wy-26" value="cliente&amp;nbsp;" style="shape=umlLifeline;perimeter=lifelinePerimeter;whiteSpace=wrap;html=1;container=1;dropTarget=0;collapsible=0;recursiveResize=0;outlineConnect=0;portConstraint=eastwest;newEdgeStyle={&quot;curved&quot;:0,&quot;rounded&quot;:0};" vertex="1" parent="1">
          <mxGeometry x="70" y="589" width="80" height="192" as="geometry" />
        </mxCell>
        <mxCell id="CY3JnBOswIFoGItXy_wy-27" value="sistema&amp;nbsp;" style="shape=umlLifeline;perimeter=lifelinePerimeter;whiteSpace=wrap;html=1;container=1;dropTarget=0;collapsible=0;recursiveResize=0;outlineConnect=0;portConstraint=eastwest;newEdgeStyle={&quot;curved&quot;:0,&quot;rounded&quot;:0};size=30;" vertex="1" parent="1">
          <mxGeometry x="350" y="600" width="80" height="192" as="geometry" />
        </mxCell>
        <mxCell id="CY3JnBOswIFoGItXy_wy-30" value="" style="html=1;points=[[0,0,0,0,5],[0,1,0,0,-5],[1,0,0,0,5],[1,1,0,0,-5]];perimeter=orthogonalPerimeter;outlineConnect=0;targetShapes=umlLifeline;portConstraint=eastwest;newEdgeStyle={&quot;curved&quot;:0,&quot;rounded&quot;:0};" vertex="1" parent="CY3JnBOswIFoGItXy_wy-27">
          <mxGeometry x="30" y="64" width="10" height="80" as="geometry" />
        </mxCell>
        <mxCell id="CY3JnBOswIFoGItXy_wy-28" value="cliente&amp;nbsp;" style="shape=umlLifeline;perimeter=lifelinePerimeter;whiteSpace=wrap;html=1;container=1;dropTarget=0;collapsible=0;recursiveResize=0;outlineConnect=0;portConstraint=eastwest;newEdgeStyle={&quot;curved&quot;:0,&quot;rounded&quot;:0};" vertex="1" parent="1">
          <mxGeometry x="650" y="608" width="80" height="192" as="geometry" />
        </mxCell>
        <mxCell id="CY3JnBOswIFoGItXy_wy-29" value="cliente&amp;nbsp;" style="shape=umlLifeline;perimeter=lifelinePerimeter;whiteSpace=wrap;html=1;container=1;dropTarget=0;collapsible=0;recursiveResize=0;outlineConnect=0;portConstraint=eastwest;newEdgeStyle={&quot;curved&quot;:0,&quot;rounded&quot;:0};size=40;" vertex="1" parent="1">
          <mxGeometry x="950" y="604" width="80" height="192" as="geometry" />
        </mxCell>
        <mxCell id="CY3JnBOswIFoGItXy_wy-32" value="" style="html=1;points=[[0,0,0,0,5],[0,1,0,0,-5],[1,0,0,0,5],[1,1,0,0,-5]];perimeter=orthogonalPerimeter;outlineConnect=0;targetShapes=umlLifeline;portConstraint=eastwest;newEdgeStyle={&quot;curved&quot;:0,&quot;rounded&quot;:0};" vertex="1" parent="CY3JnBOswIFoGItXy_wy-29">
          <mxGeometry x="40" y="97" width="10" height="80" as="geometry" />
        </mxCell>
        <mxCell id="CY3JnBOswIFoGItXy_wy-31" value="" style="html=1;verticalAlign=bottom;startArrow=oval;endArrow=block;startSize=8;curved=0;rounded=0;entryX=0;entryY=0;entryDx=0;entryDy=5;" edge="1" parent="1" target="CY3JnBOswIFoGItXy_wy-30">
          <mxGeometry relative="1" as="geometry">
            <mxPoint x="110" y="675" as="sourcePoint" />
          </mxGeometry>
        </mxCell>
        <mxCell id="CY3JnBOswIFoGItXy_wy-33" value="" style="html=1;verticalAlign=bottom;startArrow=oval;endArrow=block;startSize=8;curved=0;rounded=0;entryX=0;entryY=0;entryDx=0;entryDy=5;" edge="1" parent="1" target="CY3JnBOswIFoGItXy_wy-32">
          <mxGeometry relative="1" as="geometry">
            <mxPoint x="690" y="706" as="sourcePoint" />
          </mxGeometry>
        </mxCell>
      </root>
    </mxGraphModel>
  </diagram>
</mxfile>
